# Blender 3.1.0
# www.blender.org
mtllib BlenderTable1.mtl
o Cube
v -1.940735 -0.046481 -1.000000
v -1.940735 0.046481 -1.000000
v -1.940735 -0.046481 1.000000
v -1.940735 0.046481 1.000000
v 1.940735 -0.046481 -1.000000
v 1.940735 0.046481 -1.000000
v 1.940735 -0.046481 1.000000
v 1.940735 0.046481 1.000000
v 0.000000 0.046481 -1.000000
v 0.000000 -0.046481 1.000000
v 0.000000 0.046481 1.000000
v 0.000000 -0.046481 -1.000000
v 1.940735 0.046481 0.000000
v -1.940735 -0.046481 0.000000
v 1.940735 -0.046481 0.000000
v -1.940735 0.046481 0.000000
v 0.000000 0.046481 0.000000
v 0.000000 -0.046481 0.000000
v 1.940735 0.046481 0.500000
v -1.940735 -0.046481 0.500000
v 0.000000 0.046481 0.500000
v 0.000000 -0.046481 0.500000
v 1.940735 -0.046481 0.500000
v -1.940735 0.046481 0.500000
v 1.940735 -0.046481 -0.500000
v -1.940735 0.046481 -0.500000
v 1.940735 0.046481 -0.500000
v -1.940735 -0.046481 -0.500000
v 0.000000 0.046481 -0.500000
v 0.000000 -0.046481 -0.500000
v 0.970367 0.046481 -1.000000
v 0.970367 -0.046481 1.000000
v 0.970367 0.046481 1.000000
v 0.970367 -0.046481 -1.000000
v 0.970367 0.046481 0.000000
v 0.970367 -0.046481 0.000000
v 0.970367 0.046481 0.500000
v 0.970367 -0.046481 0.500000
v 0.970367 -0.046481 -0.500000
v 0.970367 0.046481 -0.500000
v -0.970367 0.046481 1.000000
v -0.970367 -0.046481 -1.000000
v -0.970367 0.046481 -1.000000
v -0.970367 -0.046481 1.000000
v -0.970367 -0.046481 0.000000
v -0.970367 0.046481 0.000000
v -0.970367 -0.046481 0.500000
v -0.970367 0.046481 0.500000
v -0.970367 0.046481 -0.500000
v -0.970367 -0.046481 -0.500000
v -1.455551 0.046481 1.000000
v -1.455551 -0.046481 -1.000000
v -1.455551 -0.046481 0.000000
v -1.455551 -0.046481 0.500000
v -1.455551 -0.046481 -0.500000
v -1.455551 0.046481 -1.000000
v -1.455551 -0.046481 1.000000
v -1.455551 0.046481 0.000000
v -1.455551 0.046481 0.500000
v -1.455551 0.046481 -0.500000
v 1.455551 0.046481 -1.000000
v 1.455551 -0.046481 1.000000
v 1.455551 0.046481 0.000000
v 1.455551 0.046481 0.500000
v 1.455551 0.046481 -0.500000
v 1.455551 0.046481 1.000000
v 1.455551 -0.046481 -1.000000
v 1.455551 -0.046481 0.000000
v 1.455551 -0.046481 0.500000
v 1.455551 -0.046481 -0.500000
v 1.698143 0.046481 -1.000000
v 1.698143 -0.046481 1.000000
v 1.698143 0.046481 0.000000
v 1.698143 0.046481 0.500000
v 1.698143 0.046481 -0.500000
v 1.698143 0.046481 1.000000
v 1.698143 -0.046481 -1.000000
v 1.698143 -0.046481 0.000000
v 1.698143 -0.046481 0.500000
v 1.698143 -0.046481 -0.500000
v -1.698143 0.046481 1.000000
v -1.698143 -0.046481 -1.000000
v -1.698143 -0.046481 0.000000
v -1.698143 -0.046481 0.500000
v -1.698143 -0.046481 -0.500000
v -1.698143 0.046481 -1.000000
v -1.698143 -0.046481 1.000000
v -1.698143 0.046481 0.000000
v -1.698143 0.046481 0.500000
v -1.698143 0.046481 -0.500000
v 1.940735 0.046481 0.750000
v -1.940735 -0.046481 0.750000
v 0.000000 0.046481 0.750000
v 0.000000 -0.046481 0.750000
v 1.940735 -0.046481 0.750000
v -1.940735 0.046481 0.750000
v 0.970367 0.046481 0.750000
v 0.970367 -0.046481 0.750000
v -0.970367 -0.046481 0.750000
v -0.970367 0.046481 0.750000
v -1.455551 -0.046481 0.750000
v -1.455551 0.046481 0.750000
v 1.455551 0.046481 0.750000
v 1.455551 -0.046481 0.750000
v 1.698143 0.046481 0.750000
v 1.698143 -0.046481 0.750000
v -1.698143 -0.046481 0.750000
v -1.698143 0.046481 0.750000
v 1.940735 -0.046481 -0.750000
v -1.940735 0.046481 -0.750000
v 1.940735 0.046481 -0.750000
v -1.940735 -0.046481 -0.750000
v 0.000000 0.046481 -0.750000
v 0.000000 -0.046481 -0.750000
v 0.970367 0.046481 -0.750000
v 0.970367 -0.046481 -0.750000
v -0.970367 -0.046481 -0.750000
v -0.970367 0.046481 -0.750000
v -1.455551 -0.046481 -0.750000
v -1.455551 0.046481 -0.750000
v 1.455551 0.046481 -0.750000
v 1.455551 -0.046481 -0.750000
v 1.698143 0.046481 -0.750000
v 1.698143 -0.046481 -0.750000
v -1.698143 -0.046481 -0.750000
v -1.698143 0.046481 -0.750000
v 1.819439 0.046481 -1.000000
v 1.819439 -0.046481 1.000000
v 1.819439 0.046481 0.000000
v 1.819439 0.046481 0.500000
v 1.819439 0.046481 -0.500000
v 1.819439 0.046481 1.000000
v 1.819439 -0.046481 -1.000000
v 1.819439 -0.046481 0.000000
v 1.819439 -0.046481 0.500000
v 1.819439 -0.046481 -0.500000
v 1.819439 0.046481 0.750000
v 1.819439 -0.046481 0.750000
v 1.819439 0.046481 -0.750000
v 1.819439 -0.046481 -0.750000
v 1.940735 0.046481 -0.250000
v -1.940735 -0.046481 -0.250000
v 0.000000 0.046481 -0.250000
v 0.000000 -0.046481 -0.250000
v 1.940735 -0.046481 -0.250000
v -1.940735 0.046481 -0.250000
v 0.970367 -0.046481 -0.250000
v 0.970367 0.046481 -0.250000
v -0.970367 0.046481 -0.250000
v -0.970367 -0.046481 -0.250000
v -1.455551 -0.046481 -0.250000
v -1.455551 0.046481 -0.250000
v 1.455551 0.046481 -0.250000
v 1.455551 -0.046481 -0.250000
v 1.698143 0.046481 -0.250000
v 1.698143 -0.046481 -0.250000
v -1.698143 -0.046481 -0.250000
v -1.698143 0.046481 -0.250000
v 1.819439 0.046481 -0.250000
v 1.819439 -0.046481 -0.250000
v 1.940735 0.046481 0.875000
v -1.940735 -0.046481 0.875000
v 0.000000 0.046481 0.875000
v 0.000000 -0.046481 0.875000
v 0.970367 0.046481 0.875000
v 0.970367 -0.046481 0.875000
v -0.970367 -0.046481 0.875000
v -0.970367 0.046481 0.875000
v -1.455551 -0.046481 0.875000
v -1.455551 0.046481 0.875000
v 1.455551 0.046481 0.875000
v 1.455551 -0.046481 0.875000
v 1.698143 0.046481 0.875000
v 1.698143 -0.046481 0.875000
v -1.698143 -0.046481 0.875000
v -1.698143 0.046481 0.875000
v 1.940735 -0.046481 0.875000
v -1.940735 0.046481 0.875000
v 1.819439 0.046481 0.875000
v 1.819439 -0.046481 0.875000
v 1.940735 -0.046481 -0.875000
v -1.940735 0.046481 -0.875000
v 1.940735 0.046481 -0.875000
v -1.940735 -0.046481 -0.875000
v 0.000000 0.046481 -0.875000
v 0.000000 -0.046481 -0.875000
v 0.970367 0.046481 -0.875000
v 0.970367 -0.046481 -0.875000
v -0.970367 -0.046481 -0.875000
v -0.970367 0.046481 -0.875000
v -1.455551 -0.046481 -0.875000
v -1.455551 0.046481 -0.875000
v 1.455551 0.046481 -0.875000
v 1.455551 -0.046481 -0.875000
v 1.698143 0.046481 -0.875000
v 1.698143 -0.046481 -0.875000
v -1.698143 -0.046481 -0.875000
v -1.698143 0.046481 -0.875000
v 1.819439 -0.046481 -0.875000
v 1.819439 0.046481 -0.875000
v -1.819439 0.046481 1.000000
v -1.819439 -0.046481 -1.000000
v -1.819439 -0.046481 0.000000
v -1.819439 -0.046481 0.500000
v -1.819439 -0.046481 -0.500000
v -1.819439 0.046481 -1.000000
v -1.819439 -0.046481 1.000000
v -1.819439 0.046481 0.000000
v -1.819439 0.046481 0.500000
v -1.819439 0.046481 -0.500000
v -1.819439 -0.046481 0.750000
v -1.819439 0.046481 0.750000
v -1.819439 -0.046481 -0.750000
v -1.819439 0.046481 -0.750000
v -1.819439 -0.046481 -0.250000
v -1.819439 0.046481 -0.250000
v -1.819439 -0.046481 0.875000
v -1.819439 0.046481 0.875000
v -1.819439 0.046481 -0.875000
v -1.819439 -0.046481 -0.875000
v 1.819439 -1.176030 0.750000
v 1.698143 -1.176030 0.750000
v 1.698143 -1.176030 -0.875000
v 1.698143 -1.176030 -0.750000
v -1.698143 -1.176030 -0.875000
v -1.698143 -1.176030 -0.750000
v 1.819439 -1.176030 -0.750000
v 1.819439 -1.176030 -0.875000
v 1.698143 -1.176030 0.875000
v -1.698143 -1.176030 0.750000
v -1.698143 -1.176030 0.875000
v 1.819439 -1.176030 0.875000
v -1.819439 -1.176030 0.750000
v -1.819439 -1.176030 -0.750000
v -1.819439 -1.176030 0.875000
v -1.819439 -1.176030 -0.875000
vn -0.0000 -0.0465 -0.0000
vn -0.0000 -0.0000 1.0000
vn 1.9407 -0.0000 -0.0000
vn -0.0000 0.0465 -0.0000
vn -1.9407 -0.0000 -0.0000
vn -0.0000 -0.0000 -1.0000
vt 0.625000 0.500000
vt 0.375000 0.500000
vt 0.625000 0.750000
vt 0.375000 0.750000
vt 0.625000 0.250000
vt 0.875000 0.500000
vt 0.375000 0.250000
vt 0.125000 0.500000
vt 0.875000 0.750000
vt 0.625000 1.000000
vt 0.625000 0.000000
vt 0.375000 1.000000
vt 0.125000 0.750000
vt 0.375000 0.000000
vt 0.375000 0.375000
vt 0.250000 0.500000
vt 0.625000 0.875000
vt 0.750000 0.750000
vt 0.375000 0.875000
vt 0.250000 0.750000
vt 0.625000 0.375000
vt 0.750000 0.500000
vt 0.125000 0.625000
vt 0.375000 0.125000
vt 0.625000 0.625000
vt 0.875000 0.625000
vt 0.625000 0.125000
vt 0.375000 0.625000
vt 0.250000 0.625000
vt 0.750000 0.625000
vt 0.375000 0.062500
vt 0.125000 0.687500
vt 0.625000 0.687500
vt 0.250000 0.687500
vt 0.750000 0.687500
vt 0.625000 0.062500
vt 0.875000 0.687500
vt 0.375000 0.687500
vt 0.625000 0.187500
vt 0.875000 0.562500
vt 0.375000 0.562500
vt 0.375000 0.187500
vt 0.125000 0.562500
vt 0.625000 0.562500
vt 0.250000 0.562500
vt 0.750000 0.562500
vt 0.375000 0.312500
vt 0.187500 0.500000
vt 0.625000 0.937500
vt 0.812500 0.750000
vt 0.187500 0.750000
vt 0.375000 0.937500
vt 0.625000 0.312500
vt 0.812500 0.500000
vt 0.187500 0.625000
vt 0.812500 0.625000
vt 0.187500 0.687500
vt 0.812500 0.687500
vt 0.812500 0.562500
vt 0.187500 0.562500
vt 0.375000 0.812500
vt 0.312500 0.750000
vt 0.625000 0.437500
vt 0.687500 0.500000
vt 0.375000 0.437500
vt 0.312500 0.500000
vt 0.687500 0.750000
vt 0.625000 0.812500
vt 0.687500 0.625000
vt 0.312500 0.625000
vt 0.687500 0.687500
vt 0.312500 0.687500
vt 0.312500 0.562500
vt 0.687500 0.562500
vt 0.375000 0.781250
vt 0.343750 0.750000
vt 0.625000 0.468750
vt 0.656250 0.500000
vt 0.656250 0.625000
vt 0.656250 0.687500
vt 0.656250 0.562500
vt 0.375000 0.468750
vt 0.343750 0.500000
vt 0.625000 0.781250
vt 0.656250 0.750000
vt 0.343750 0.625000
vt 0.343750 0.687500
vt 0.343750 0.562500
vt 0.375000 0.281250
vt 0.156250 0.500000
vt 0.625000 0.968750
vt 0.843750 0.750000
vt 0.156250 0.625000
vt 0.156250 0.687500
vt 0.156250 0.562500
vt 0.156250 0.750000
vt 0.375000 0.968750
vt 0.625000 0.281250
vt 0.843750 0.500000
vt 0.843750 0.625000
vt 0.843750 0.687500
vt 0.843750 0.562500
vt 0.375000 0.265625
vt 0.140625 0.500000
vt 0.625000 0.984375
vt 0.859375 0.750000
vt 0.140625 0.625000
vt 0.140625 0.687500
vt 0.140625 0.562500
vt 0.140625 0.750000
vt 0.375000 0.984375
vt 0.625000 0.265625
vt 0.859375 0.500000
vt 0.859375 0.625000
vt 0.859375 0.687500
vt 0.859375 0.562500
vt 0.375000 0.765625
vt 0.359375 0.750000
vt 0.640625 0.500000
vt 0.625000 0.484375
vt 0.640625 0.625000
vt 0.640625 0.687500
vt 0.640625 0.562500
vt 0.359375 0.500000
vt 0.375000 0.484375
vt 0.640625 0.750000
vt 0.625000 0.765625
vt 0.359375 0.625000
vt 0.359375 0.687500
vt 0.359375 0.562500
vt 0.375000 0.031250
vt 0.125000 0.718750
vt 0.625000 0.718750
vt 0.250000 0.718750
vt 0.750000 0.718750
vt 0.625000 0.031250
vt 0.875000 0.718750
vt 0.375000 0.718750
vt 0.187500 0.718750
vt 0.812500 0.718750
vt 0.687500 0.718750
vt 0.312500 0.718750
vt 0.656250 0.718750
vt 0.343750 0.718750
vt 0.156250 0.718750
vt 0.843750 0.718750
vt 0.140625 0.718750
vt 0.859375 0.718750
vt 0.640625 0.718750
vt 0.359375 0.718750
vt 0.875000 0.531250
vt 0.625000 0.218750
vt 0.375000 0.531250
vt 0.125000 0.531250
vt 0.375000 0.218750
vt 0.625000 0.531250
vt 0.250000 0.531250
vt 0.750000 0.531250
vt 0.187500 0.531250
vt 0.812500 0.531250
vt 0.687500 0.531250
vt 0.312500 0.531250
vt 0.656250 0.531250
vt 0.343750 0.531250
vt 0.156250 0.531250
vt 0.843750 0.531250
vt 0.140625 0.531250
vt 0.859375 0.531250
vt 0.640625 0.531250
vt 0.359375 0.531250
vt 0.375000 0.257812
vt 0.132812 0.500000
vt 0.625000 0.992188
vt 0.867188 0.750000
vt 0.132812 0.625000
vt 0.132812 0.687500
vt 0.132812 0.562500
vt 0.132812 0.750000
vt 0.375000 0.992188
vt 0.625000 0.257812
vt 0.867188 0.500000
vt 0.867188 0.625000
vt 0.867188 0.687500
vt 0.867188 0.562500
vt 0.132812 0.718750
vt 0.867188 0.718750
vt 0.132812 0.531250
vt 0.867188 0.531250
vt 0.125000 0.593750
vt 0.375000 0.156250
vt 0.625000 0.593750
vt 0.250000 0.593750
vt 0.750000 0.593750
vt 0.625000 0.156250
vt 0.875000 0.593750
vt 0.375000 0.593750
vt 0.812500 0.593750
vt 0.187500 0.593750
vt 0.312500 0.593750
vt 0.687500 0.593750
vt 0.656250 0.593750
vt 0.343750 0.593750
vt 0.156250 0.593750
vt 0.843750 0.593750
vt 0.140625 0.593750
vt 0.859375 0.593750
vt 0.640625 0.593750
vt 0.359375 0.593750
vt 0.132812 0.593750
vt 0.867188 0.593750
vt 0.125000 0.734375
vt 0.375000 0.015625
vt 0.625000 0.734375
vt 0.250000 0.734375
vt 0.750000 0.734375
vt 0.187500 0.734375
vt 0.812500 0.734375
vt 0.687500 0.734375
vt 0.312500 0.734375
vt 0.656250 0.734375
vt 0.343750 0.734375
vt 0.156250 0.734375
vt 0.843750 0.734375
vt 0.140625 0.734375
vt 0.859375 0.734375
vt 0.640625 0.734375
vt 0.359375 0.734375
vt 0.625000 0.015625
vt 0.875000 0.734375
vt 0.375000 0.734375
vt 0.132812 0.734375
vt 0.867188 0.734375
vt 0.875000 0.515625
vt 0.625000 0.234375
vt 0.375000 0.515625
vt 0.125000 0.515625
vt 0.375000 0.234375
vt 0.625000 0.515625
vt 0.250000 0.515625
vt 0.750000 0.515625
vt 0.187500 0.515625
vt 0.812500 0.515625
vt 0.687500 0.515625
vt 0.312500 0.515625
vt 0.656250 0.515625
vt 0.343750 0.515625
vt 0.156250 0.515625
vt 0.843750 0.515625
vt 0.140625 0.515625
vt 0.859375 0.515625
vt 0.640625 0.515625
vt 0.359375 0.515625
vt 0.867188 0.515625
vt 0.132812 0.515625
vt 0.375000 0.757812
vt 0.367188 0.750000
vt 0.632812 0.500000
vt 0.625000 0.492188
vt 0.632812 0.625000
vt 0.632812 0.687500
vt 0.632812 0.562500
vt 0.367188 0.500000
vt 0.375000 0.492188
vt 0.625000 0.757812
vt 0.632812 0.750000
vt 0.367188 0.625000
vt 0.367188 0.687500
vt 0.367188 0.562500
vt 0.632812 0.718750
vt 0.367188 0.718750
vt 0.632812 0.531250
vt 0.367188 0.531250
vt 0.632812 0.593750
vt 0.367188 0.593750
vt 0.632812 0.734375
vt 0.367188 0.734375
vt 0.367188 0.515625
vt 0.632812 0.515625
vt 0.867188 0.718750
vt 0.859375 0.718750
vt 0.859375 0.515625
vt 0.859375 0.531250
vt 0.640625 0.515625
vt 0.640625 0.531250
vt 0.867188 0.531250
vt 0.867188 0.515625
vt 0.859375 0.734375
vt 0.640625 0.718750
vt 0.640625 0.734375
vt 0.867188 0.734375
vt 0.632812 0.718750
vt 0.632812 0.531250
vt 0.632812 0.734375
vt 0.632812 0.515625
s 0
usemtl Material
f 180/232/1 177/229/1 7/9/1 128/174/1
f 132/179/2 128/173/2 7/10/2 8/12/2
f 183/237/3 181/234/3 5/5/3 6/7/3
f 218/276/4 178/230/4 4/4/4 201/256/4
f 178/230/5 162/213/5 3/3/5 4/4/5
f 206/263/6 202/258/6 1/1/6 2/2/6
f 31/47/6 34/53/6 12/21/6 9/15/6
f 165/216/4 163/214/4 11/20/4 33/51/4
f 41/61/2 44/68/2 10/17/2 11/19/2
f 167/218/1 164/215/1 10/18/1 44/67/1
f 150/200/1 144/193/1 18/30/1 45/69/1
f 148/198/4 143/192/4 17/29/4 35/55/4
f 146/196/5 142/191/5 14/25/5 16/28/5
f 216/274/4 146/196/4 16/28/4 208/266/4
f 19/31/3 23/36/3 15/27/3 13/24/3
f 160/210/1 145/195/1 15/26/1 134/182/1
f 91/131/3 95/136/3 23/36/3 19/31/3
f 45/69/1 18/30/1 22/35/1 47/71/1
f 35/55/4 17/29/4 21/34/4 37/57/4
f 16/28/5 14/25/5 20/33/5 24/38/5
f 208/266/4 16/28/4 24/38/4 209/267/4
f 134/182/1 15/26/1 23/37/1 135/183/1
f 140/188/1 109/151/1 25/40/1 136/184/1
f 214/272/4 110/153/4 26/41/4 210/268/4
f 110/153/5 112/156/5 28/44/5 26/41/5
f 115/159/4 113/157/4 29/45/4 40/60/4
f 117/161/1 114/158/1 30/46/1 50/74/1
f 141/190/3 145/194/3 25/39/3 27/42/3
f 121/165/4 115/159/4 40/60/4 65/95/4
f 114/158/1 116/160/1 39/59/1 30/46/1
f 18/30/1 36/56/1 38/58/1 22/35/1
f 63/93/4 35/55/4 37/57/4 64/94/4
f 144/193/1 147/197/1 36/56/1 18/30/1
f 153/203/4 148/198/4 35/55/4 63/93/4
f 171/222/4 165/216/4 33/51/4 66/96/4
f 61/89/6 67/98/6 34/53/6 31/47/6
f 11/19/2 10/17/2 32/49/2 33/52/2
f 164/215/1 166/217/1 32/50/1 10/18/1
f 119/163/1 117/161/1 50/74/1 55/81/1
f 113/157/4 118/162/4 49/73/4 29/45/4
f 17/29/4 46/70/4 48/72/4 21/34/4
f 53/79/1 45/69/1 47/71/1 54/80/1
f 143/192/4 149/199/4 46/70/4 17/29/4
f 151/201/1 150/200/1 45/69/1 53/79/1
f 169/220/1 167/218/1 44/67/1 57/85/1
f 51/75/2 57/84/2 44/68/2 41/61/2
f 9/15/6 12/21/6 42/63/6 43/65/6
f 163/214/4 168/219/4 41/62/4 11/20/4
f 81/117/2 87/127/2 57/84/2 51/75/2
f 175/226/1 169/220/1 57/85/1 87/126/1
f 157/207/1 151/201/1 53/79/1 83/121/1
f 83/121/1 53/79/1 54/80/1 84/122/1
f 125/169/1 119/163/1 55/81/1 85/123/1
f 118/162/4 120/164/4 60/88/4 49/73/4
f 46/70/4 58/86/4 59/87/4 48/72/4
f 149/199/4 152/202/4 58/86/4 46/70/4
f 43/65/6 42/63/6 52/77/6 56/82/6
f 168/219/4 170/221/4 51/76/4 41/62/4
f 71/103/6 77/112/6 67/98/6 61/89/6
f 173/224/4 171/222/4 66/96/4 76/110/4
f 155/205/4 153/203/4 63/93/4 73/107/4
f 73/107/4 63/93/4 64/94/4 74/108/4
f 123/167/4 121/165/4 65/95/4 75/109/4
f 116/160/1 122/166/1 70/102/1 39/59/1
f 36/56/1 68/100/1 69/101/1 38/58/1
f 147/197/1 154/204/1 68/100/1 36/56/1
f 33/52/2 32/49/2 62/91/2 66/97/2
f 166/217/1 172/223/1 62/92/1 32/50/1
f 139/187/4 123/167/4 75/109/4 131/177/4
f 129/175/4 73/107/4 74/108/4 130/176/4
f 159/209/4 155/205/4 73/107/4 129/175/4
f 179/231/4 173/224/4 76/110/4 132/178/4
f 127/171/6 133/180/6 77/112/6 71/103/6
f 122/166/1 124/168/1 80/116/1 70/102/1
f 68/100/1 78/114/1 79/115/1 69/101/1
f 154/204/1 156/206/1 78/114/1 68/100/1
f 66/97/2 62/91/2 72/105/2 76/111/2
f 172/223/1 174/225/1 72/106/1 62/92/1
f 213/271/1 125/169/1 85/123/1 205/261/1
f 203/259/1 83/121/1 84/122/1 204/260/1
f 215/273/1 157/207/1 83/121/1 203/259/1
f 217/275/1 175/226/1 87/126/1 207/265/1
f 201/255/2 207/264/2 87/127/2 81/117/2
f 120/164/4 126/170/4 90/130/4 60/88/4
f 58/86/4 88/128/4 89/129/4 59/87/4
f 152/202/4 158/208/4 88/128/4 58/86/4
f 56/82/6 52/77/6 82/120/6 86/125/6
f 170/221/4 176/227/4 81/118/4 51/76/4
f 59/87/4 89/129/4 108/150/4 102/144/4
f 204/260/1 84/122/1 107/149/1 211/269/1
f 69/101/1 79/115/1 106/148/1 104/146/1
f 130/176/4 74/108/4 105/147/4 137/185/4
f 38/58/1 69/101/1 104/146/1 98/140/1
f 74/108/4 64/94/4 103/145/4 105/147/4
f 48/72/4 59/87/4 102/144/4 100/142/4
f 84/122/1 54/80/1 101/143/1 107/149/1
f 21/34/4 48/72/4 100/142/4 93/134/4
f 54/80/1 47/71/1 99/141/1 101/143/1
f 22/35/1 38/58/1 98/140/1 94/135/1
f 64/94/4 37/57/4 97/139/4 103/145/4
f 161/212/3 177/228/3 95/136/3 91/131/3
f 47/71/1 22/35/1 94/135/1 99/141/1
f 37/57/4 21/34/4 93/134/4 97/139/4
f 24/38/5 20/33/5 92/133/5 96/138/5
f 209/267/4 24/38/4 96/138/4 212/270/4
f 135/183/1 23/37/1 95/137/1 138/186/1
f 192/246/4 198/252/4 126/170/4 120/164/4
f 180/232/2 174/225/2 229/287/2 232/290/2
f 194/248/1 196/250/1 124/168/1 122/166/1
f 200/254/4 195/249/4 123/167/4 139/187/4
f 188/242/1 194/248/1 122/166/1 116/160/1
f 195/249/4 193/247/4 121/165/4 123/167/4
f 190/244/4 192/246/4 120/164/4 118/162/4
f 197/251/1 191/245/1 119/163/1 125/169/1
f 185/239/4 190/244/4 118/162/4 113/157/4
f 191/245/1 189/243/1 117/161/1 119/163/1
f 186/240/1 188/242/1 116/160/1 114/158/1
f 193/247/4 187/241/4 115/159/4 121/165/4
f 189/243/1 186/240/1 114/158/1 117/161/1
f 187/241/4 185/239/4 113/157/4 115/159/4
f 182/235/5 184/238/5 112/156/5 110/153/5
f 219/277/4 182/235/4 110/153/4 214/272/4
f 199/253/1 181/233/1 109/151/1 140/188/1
f 27/42/3 25/39/3 109/152/3 111/155/3
f 199/253/3 140/188/3 227/285/3 228/286/3
f 183/236/4 200/254/4 139/187/4 111/154/4
f 79/115/1 135/183/1 138/186/1 106/148/1
f 19/32/4 130/176/4 137/185/4 91/132/4
f 6/7/6 5/5/6 133/180/6 127/171/6
f 161/211/4 179/231/4 132/178/4 8/13/4
f 141/189/4 159/209/4 129/175/4 13/23/4
f 13/23/4 129/175/4 130/176/4 19/32/4
f 111/154/4 139/187/4 131/177/4 27/43/4
f 124/168/1 140/188/1 136/184/1 80/116/1
f 78/114/1 134/182/1 135/183/1 79/115/1
f 156/206/1 160/210/1 134/182/1 78/114/1
f 76/111/2 72/105/2 128/173/2 132/179/2
f 174/225/1 180/232/1 128/174/1 72/106/1
f 80/116/1 136/184/1 160/210/1 156/206/1
f 27/43/4 131/177/4 159/209/4 141/189/4
f 60/88/4 90/130/4 158/208/4 152/202/4
f 205/261/1 85/123/1 157/207/1 215/273/1
f 70/102/1 80/116/1 156/206/1 154/204/1
f 131/177/4 75/109/4 155/205/4 159/209/4
f 39/59/1 70/102/1 154/204/1 147/197/1
f 75/109/4 65/95/4 153/203/4 155/205/4
f 49/73/4 60/88/4 152/202/4 149/199/4
f 85/123/1 55/81/1 151/201/1 157/207/1
f 55/81/1 50/74/1 150/200/1 151/201/1
f 29/45/4 49/73/4 149/199/4 143/192/4
f 65/95/4 40/60/4 148/198/4 153/203/4
f 30/46/1 39/59/1 147/197/1 144/193/1
f 13/24/3 15/27/3 145/194/3 141/190/3
f 136/184/1 25/40/1 145/195/1 160/210/1
f 210/268/4 26/41/4 146/196/4 216/274/4
f 26/41/5 28/44/5 142/191/5 146/196/5
f 40/60/4 29/45/4 143/192/4 148/198/4
f 50/74/1 30/46/1 144/193/1 150/200/1
f 138/186/3 180/232/3 232/290/3 221/279/3
f 91/132/4 137/185/4 179/231/4 161/211/4
f 8/14/3 7/11/3 177/228/3 161/212/3
f 102/144/4 108/150/4 176/227/4 170/221/4
f 140/188/2 124/168/2 224/282/2 227/285/2
f 104/146/1 106/148/1 174/225/1 172/223/1
f 137/185/4 105/147/4 173/224/4 179/231/4
f 98/140/1 104/146/1 172/223/1 166/217/1
f 105/147/4 103/145/4 171/222/4 173/224/4
f 100/142/4 102/144/4 170/221/4 168/219/4
f 107/149/1 101/143/1 169/220/1 175/226/1
f 93/134/4 100/142/4 168/219/4 163/214/4
f 101/143/1 99/141/1 167/218/1 169/220/1
f 94/135/1 98/140/1 166/217/1 164/215/1
f 103/145/4 97/139/4 165/216/4 171/222/4
f 99/141/1 94/135/1 164/215/1 167/218/1
f 97/139/4 93/134/4 163/214/4 165/216/4
f 96/138/5 92/133/5 162/213/5 178/230/5
f 212/270/4 96/138/4 178/230/4 218/276/4
f 138/186/1 95/137/1 177/229/1 180/232/1
f 6/8/4 127/172/4 200/254/4 183/236/4
f 77/113/1 133/181/1 199/253/1 196/250/1
f 133/181/1 5/6/1 181/233/1 199/253/1
f 206/262/4 2/2/4 182/235/4 219/277/4
f 2/2/5 1/1/5 184/238/5 182/235/5
f 31/48/4 9/16/4 185/239/4 187/241/4
f 42/64/1 12/22/1 186/240/1 189/243/1
f 61/90/4 31/48/4 187/241/4 193/247/4
f 12/22/1 34/54/1 188/242/1 186/240/1
f 52/78/1 42/64/1 189/243/1 191/245/1
f 9/16/4 43/66/4 190/244/4 185/239/4
f 82/119/1 52/78/1 191/245/1 197/251/1
f 43/66/4 56/83/4 192/246/4 190/244/4
f 71/104/4 61/90/4 193/247/4 195/249/4
f 34/54/1 67/99/1 194/248/1 188/242/1
f 127/172/4 71/104/4 195/249/4 200/254/4
f 67/99/1 77/113/1 196/250/1 194/248/1
f 202/257/1 82/119/1 197/251/1 220/278/1
f 56/83/4 86/124/4 198/252/4 192/246/4
f 111/155/3 109/152/3 181/234/3 183/237/3
f 1/1/1 202/257/1 220/278/1 184/238/1
f 86/124/4 206/262/4 219/277/4 198/252/4
f 108/150/4 212/270/4 218/276/4 176/227/4
f 92/133/1 211/269/1 217/275/1 162/213/1
f 90/130/4 210/268/4 216/274/4 158/208/4
f 28/44/1 205/261/1 215/273/1 142/191/1
f 198/252/4 219/277/4 214/272/4 126/170/4
f 184/238/1 220/278/1 213/271/1 112/156/1
f 89/129/4 209/267/4 212/270/4 108/150/4
f 20/33/1 204/260/1 211/269/1 92/133/1
f 4/4/2 3/3/2 207/264/2 201/255/2
f 162/213/1 217/275/1 207/265/1 3/3/1
f 142/191/1 215/273/1 203/259/1 14/25/1
f 14/25/1 203/259/1 204/260/1 20/33/1
f 112/156/1 213/271/1 205/261/1 28/44/1
f 126/170/4 214/272/4 210/268/4 90/130/4
f 88/128/4 208/266/4 209/267/4 89/129/4
f 158/208/4 216/274/4 208/266/4 88/128/4
f 86/125/6 82/120/6 202/258/6 206/263/6
f 176/227/4 218/276/4 201/256/4 81/118/4
f 236/294/1 225/283/1 226/284/1 234/292/1
f 223/281/1 228/286/1 227/285/1 224/282/1
f 222/280/1 221/279/1 232/290/1 229/287/1
f 233/291/1 230/288/1 231/289/1 235/293/1
f 174/225/5 106/148/5 222/280/5 229/287/5
f 106/148/6 138/186/6 221/279/6 222/280/6
f 107/149/3 175/226/3 231/289/3 230/288/3
f 217/275/5 211/269/5 233/291/5 235/293/5
f 175/226/2 217/275/2 235/293/2 231/289/2
f 124/168/5 196/250/5 223/281/5 224/282/5
f 197/251/3 125/169/3 226/284/3 225/283/3
f 211/269/6 107/149/6 230/288/6 233/291/6
f 196/250/6 199/253/6 228/286/6 223/281/6
f 220/278/6 197/251/6 225/283/6 236/294/6
f 125/169/2 213/271/2 234/292/2 226/284/2
f 213/271/5 220/278/5 236/294/5 234/292/5
