# Blender 3.1.0
# www.blender.org
mtllib Sinkplace1.mtl
o Cube
v 1.000000 1.000000 -2.316713
v 1.000000 -1.000000 -2.316713
v 1.000000 1.000000 2.316713
v 1.000000 -1.000000 2.316713
v -1.000000 1.000000 -2.316713
v -1.000000 -1.000000 -2.316713
v -1.000000 1.000000 2.316713
v -1.000000 -1.000000 2.316713
v -1.000000 -1.000000 0.000000
v 1.000000 1.000000 0.000000
v -1.000000 1.000000 0.000000
v 1.000000 -1.000000 0.000000
v -1.000000 -1.000000 1.158357
v 1.000000 1.000000 1.158357
v -1.000000 1.000000 1.158357
v 1.000000 -1.000000 1.158357
v -1.000000 1.000000 -1.158357
v 1.000000 -1.000000 -1.158357
v -1.000000 -1.000000 -1.158357
v 1.000000 1.000000 -1.158357
v -1.000000 -1.000000 1.737535
v 1.000000 1.000000 1.737535
v -1.000000 1.000000 1.737535
v 1.000000 -1.000000 1.737535
v -1.000000 1.000000 0.579178
v 1.000000 -1.000000 0.579178
v -1.000000 -1.000000 0.579178
v 1.000000 1.000000 0.579178
v -1.000000 -1.000000 -0.579178
v 1.000000 1.000000 -0.579178
v -1.000000 1.000000 -0.579178
v 1.000000 -1.000000 -0.579178
v -1.000000 1.000000 -1.737535
v 1.000000 -1.000000 -1.737535
v -1.000000 -1.000000 -1.737535
v 1.000000 1.000000 -1.737535
v 0.000000 -1.000000 -2.316713
v 0.000000 1.000000 2.316713
v 0.000000 -1.000000 2.316713
v 0.000000 1.000000 -2.316713
v 0.000000 -1.000000 0.000000
v 0.000000 1.000000 0.000000
v 0.000000 -1.000000 1.158357
v 0.000000 1.000000 -1.158357
v 0.000000 -1.000000 -1.158357
v 0.000000 -1.000000 1.737535
v 0.000000 -1.000000 0.579178
v 0.000000 1.000000 -0.579178
v 0.000000 -1.000000 -0.579178
v 0.000000 -1.000000 -1.737535
v 0.000000 1.000000 -1.737535
v -0.500000 -1.000000 -2.316713
v -0.500000 1.000000 2.316713
v -0.500000 -1.000000 0.000000
v -0.500000 -1.000000 1.158357
v -0.500000 -1.000000 -1.158357
v -0.500000 -1.000000 1.737535
v -0.500000 -1.000000 0.579178
v -0.500000 -1.000000 -0.579178
v -0.500000 -1.000000 -1.737535
v -0.500000 -1.000000 2.316713
v -0.500000 1.000000 -2.316713
v -0.500000 1.000000 0.000000
v -0.500000 1.000000 -1.158357
v -0.500000 1.000000 -0.579178
v -0.500000 1.000000 -1.737535
v 0.500000 -1.000000 2.316713
v 0.500000 1.000000 -2.316713
v 0.500000 1.000000 0.000000
v 0.500000 1.000000 1.158357
v 0.500000 1.000000 -1.158357
v 0.500000 1.000000 1.737535
v 0.500000 1.000000 0.579178
v 0.500000 1.000000 -0.579178
v 0.500000 1.000000 -1.737535
v 0.500000 -1.000000 -2.316713
v 0.500000 1.000000 2.316713
v 0.500000 -1.000000 0.000000
v 0.500000 -1.000000 1.158357
v 0.500000 -1.000000 -1.158357
v 0.500000 -1.000000 1.737535
v 0.500000 -1.000000 0.579178
v 0.500000 -1.000000 -0.579178
v 0.500000 -1.000000 -1.737535
v -1.000000 -1.000000 2.027124
v 1.000000 1.000000 2.027124
v -1.000000 1.000000 2.027124
v 1.000000 -1.000000 2.027124
v 0.000000 -1.000000 2.027124
v 0.000000 1.000000 2.027124
v -0.500000 -1.000000 2.027124
v -0.500000 1.000000 2.027124
v 0.500000 1.000000 2.027124
v 0.500000 -1.000000 2.027124
v -1.000000 1.000000 0.289589
v 1.000000 -1.000000 0.289589
v -1.000000 -1.000000 0.289589
v 1.000000 1.000000 0.289589
v 0.000000 -1.000000 0.289589
v 0.000000 1.000000 0.289589
v -0.500000 -1.000000 0.289589
v -0.500000 1.000000 0.289589
v 0.500000 1.000000 0.289589
v 0.500000 -1.000000 0.289589
v -0.750000 -1.000000 -2.316713
v -0.750000 1.000000 2.316713
v -0.750000 -1.000000 0.000000
v -0.750000 -1.000000 1.158357
v -0.750000 -1.000000 -1.158357
v -0.750000 -1.000000 1.737535
v -0.750000 -1.000000 0.579178
v -0.750000 -1.000000 -0.579178
v -0.750000 -1.000000 -1.737535
v -0.750000 -1.000000 2.316713
v -0.750000 1.000000 -2.316713
v -0.750000 1.000000 0.000000
v -0.750000 1.000000 1.158357
v -0.750000 1.000000 -1.158357
v -0.750000 1.000000 1.737535
v -0.750000 1.000000 0.579178
v -0.750000 1.000000 -0.579178
v -0.750000 1.000000 -1.737535
v -0.750000 -1.000000 2.027124
v -0.750000 1.000000 2.027124
v -0.750000 -1.000000 0.289589
v -0.750000 1.000000 0.289589
v -0.500000 0.228076 1.158357
v 0.000000 0.228076 1.158357
v -0.500000 0.228076 1.737535
v 0.000000 0.228076 1.737535
v -0.500000 0.228076 0.579178
v 0.000000 0.228076 0.579178
v 0.000000 0.228076 0.289589
v -0.750000 0.228076 1.158357
v -0.750000 0.228076 1.737535
v -0.750000 0.228076 0.579178
v -0.500000 0.228076 0.289589
v 0.500000 0.228076 1.158357
v 0.500000 0.228076 1.737535
v 0.500000 0.228076 0.579178
v 0.500000 0.228076 0.289589
v 0.000000 0.228076 2.027124
v -0.500000 0.228076 2.027124
v 0.500000 0.228076 2.027124
v -0.750000 0.228076 2.027124
v -0.750000 0.228076 0.289589
vn -0.0000 1.0000 -0.0000
vn -0.0000 -0.0000 2.3167
vn -1.0000 -0.0000 -0.0000
vn -0.0000 -1.0000 -0.0000
vn 1.0000 -0.0000 -0.0000
vn -0.0000 -0.0000 -2.3167
vt 0.625000 0.500000
vt 0.375000 0.500000
vt 0.625000 0.750000
vt 0.375000 0.750000
vt 0.875000 0.500000
vt 0.625000 0.250000
vt 0.125000 0.500000
vt 0.375000 0.250000
vt 0.875000 0.750000
vt 0.625000 1.000000
vt 0.625000 0.000000
vt 0.375000 1.000000
vt 0.375000 0.000000
vt 0.125000 0.750000
vt 0.375000 0.125000
vt 0.125000 0.625000
vt 0.625000 0.625000
vt 0.625000 0.125000
vt 0.875000 0.625000
vt 0.375000 0.625000
vt 0.375000 0.062500
vt 0.125000 0.687500
vt 0.625000 0.687500
vt 0.875000 0.687500
vt 0.625000 0.062500
vt 0.375000 0.687500
vt 0.875000 0.562500
vt 0.625000 0.187500
vt 0.375000 0.562500
vt 0.375000 0.187500
vt 0.125000 0.562500
vt 0.625000 0.562500
vt 0.375000 0.031250
vt 0.125000 0.718750
vt 0.625000 0.718750
vt 0.625000 0.031250
vt 0.875000 0.718750
vt 0.375000 0.718750
vt 0.875000 0.656250
vt 0.625000 0.093750
vt 0.375000 0.656250
vt 0.375000 0.093750
vt 0.125000 0.656250
vt 0.625000 0.656250
vt 0.375000 0.156250
vt 0.125000 0.593750
vt 0.625000 0.593750
vt 0.625000 0.156250
vt 0.875000 0.593750
vt 0.375000 0.593750
vt 0.875000 0.531250
vt 0.625000 0.218750
vt 0.375000 0.531250
vt 0.375000 0.218750
vt 0.125000 0.531250
vt 0.625000 0.531250
vt 0.250000 0.500000
vt 0.375000 0.375000
vt 0.625000 0.875000
vt 0.750000 0.750000
vt 0.375000 0.875000
vt 0.250000 0.750000
vt 0.750000 0.500000
vt 0.625000 0.375000
vt 0.250000 0.625000
vt 0.750000 0.625000
vt 0.250000 0.687500
vt 0.750000 0.562500
vt 0.250000 0.562500
vt 0.250000 0.718750
vt 0.250000 0.656250
vt 0.750000 0.593750
vt 0.250000 0.593750
vt 0.250000 0.531250
vt 0.750000 0.531250
vt 0.375000 0.312500
vt 0.187500 0.500000
vt 0.625000 0.937500
vt 0.812500 0.750000
vt 0.187500 0.625000
vt 0.187500 0.687500
vt 0.187500 0.562500
vt 0.187500 0.718750
vt 0.187500 0.656250
vt 0.187500 0.593750
vt 0.187500 0.531250
vt 0.187500 0.750000
vt 0.375000 0.937500
vt 0.625000 0.312500
vt 0.812500 0.500000
vt 0.812500 0.625000
vt 0.812500 0.562500
vt 0.812500 0.593750
vt 0.812500 0.531250
vt 0.375000 0.812500
vt 0.312500 0.750000
vt 0.687500 0.500000
vt 0.625000 0.437500
vt 0.687500 0.625000
vt 0.687500 0.687500
vt 0.687500 0.562500
vt 0.687500 0.718750
vt 0.687500 0.656250
vt 0.687500 0.593750
vt 0.687500 0.531250
vt 0.312500 0.500000
vt 0.375000 0.437500
vt 0.687500 0.750000
vt 0.625000 0.812500
vt 0.312500 0.625000
vt 0.312500 0.687500
vt 0.312500 0.562500
vt 0.312500 0.718750
vt 0.312500 0.656250
vt 0.312500 0.593750
vt 0.312500 0.531250
vt 0.375000 0.015625
vt 0.125000 0.734375
vt 0.625000 0.734375
vt 0.625000 0.015625
vt 0.875000 0.734375
vt 0.375000 0.734375
vt 0.250000 0.734375
vt 0.750000 0.734375
vt 0.187500 0.734375
vt 0.812500 0.734375
vt 0.687500 0.734375
vt 0.312500 0.734375
vt 0.875000 0.640625
vt 0.625000 0.109375
vt 0.375000 0.640625
vt 0.375000 0.109375
vt 0.125000 0.640625
vt 0.625000 0.640625
vt 0.250000 0.640625
vt 0.750000 0.640625
vt 0.187500 0.640625
vt 0.812500 0.640625
vt 0.687500 0.640625
vt 0.312500 0.640625
vt 0.156250 0.500000
vt 0.375000 0.281250
vt 0.625000 0.968750
vt 0.843750 0.750000
vt 0.156250 0.625000
vt 0.156250 0.687500
vt 0.156250 0.562500
vt 0.156250 0.718750
vt 0.156250 0.656250
vt 0.156250 0.593750
vt 0.156250 0.531250
vt 0.156250 0.750000
vt 0.375000 0.968750
vt 0.625000 0.281250
vt 0.843750 0.500000
vt 0.843750 0.625000
vt 0.843750 0.687500
vt 0.843750 0.562500
vt 0.843750 0.718750
vt 0.843750 0.656250
vt 0.843750 0.593750
vt 0.843750 0.531250
vt 0.156250 0.734375
vt 0.843750 0.734375
vt 0.156250 0.640625
vt 0.843750 0.640625
vt 0.812500 0.687500
vt 0.750000 0.687500
vt 0.812500 0.718750
vt 0.750000 0.718750
vt 0.812500 0.656250
vt 0.750000 0.656250
vt 0.750000 0.640625
vt 0.843750 0.687500
vt 0.843750 0.718750
vt 0.843750 0.656250
vt 0.812500 0.640625
vt 0.687500 0.687500
vt 0.687500 0.718750
vt 0.687500 0.656250
vt 0.687500 0.640625
vt 0.750000 0.734375
vt 0.812500 0.734375
vt 0.687500 0.734375
vt 0.843750 0.734375
vt 0.843750 0.640625
s 0
usemtl Material
f 124/164/1 87/121/1 7/9/1 106/144/1
f 114/153/2 106/143/2 7/10/2 8/12/2
f 35/54/3 33/52/3 5/6/3 6/8/3
f 94/128/4 88/122/4 4/4/4 67/96/4
f 88/122/5 86/119/5 3/3/5 4/4/5
f 76/107/6 68/98/6 1/1/6 2/2/6
f 32/50/5 30/47/5 10/17/5 12/20/5
f 83/115/4 32/50/4 12/20/4 78/110/4
f 97/132/3 95/130/3 11/18/3 9/15/3
f 121/161/1 31/49/1 11/19/1 116/156/1
f 21/33/3 23/36/3 15/25/3 13/21/3
f 26/41/5 28/44/5 14/23/5 16/26/5
f 82/114/4 26/41/4 16/26/4 79/111/4
f 120/160/1 25/39/1 15/24/1 117/157/1
f 122/162/1 33/51/1 17/27/1 118/158/1
f 84/116/4 34/53/4 18/29/4 80/112/4
f 34/53/5 36/56/5 20/32/5 18/29/5
f 29/45/3 31/48/3 17/28/3 19/30/3
f 85/117/3 87/120/3 23/36/3 21/33/3
f 16/26/5 14/23/5 22/35/5 24/38/5
f 79/111/4 16/26/4 24/38/4 81/113/4
f 117/157/1 15/24/1 23/37/1 119/159/1
f 126/166/1 95/129/1 25/39/1 120/160/1
f 104/140/4 96/131/4 26/41/4 82/114/4
f 96/131/5 98/134/5 28/44/5 26/41/5
f 13/21/3 15/25/3 25/40/3 27/42/3
f 9/15/3 11/18/3 31/48/3 29/45/3
f 118/158/1 17/27/1 31/49/1 121/161/1
f 80/112/4 18/29/4 32/50/4 83/115/4
f 18/29/5 20/32/5 30/47/5 32/50/5
f 2/2/5 1/1/5 36/56/5 34/53/5
f 76/106/4 2/2/4 34/53/4 84/116/4
f 115/155/1 5/5/1 33/51/1 122/162/1
f 19/30/3 17/28/3 33/52/3 35/54/3
f 68/97/1 40/63/1 51/75/1 75/105/1
f 52/77/4 37/57/4 50/74/4 60/86/4
f 56/82/4 45/69/4 49/73/4 59/85/4
f 71/101/1 44/68/1 48/72/1 74/104/1
f 101/137/4 99/135/4 47/71/4 58/84/4
f 124/164/6 92/126/6 143/183/6 145/185/6
f 117/157/5 119/159/5 135/175/5 134/174/5
f 55/81/4 43/67/4 46/70/4 57/83/4
f 60/86/4 50/74/4 45/69/4 56/82/4
f 75/105/1 51/75/1 44/68/1 71/101/1
f 126/166/5 120/160/5 136/176/5 146/186/5
f 58/84/4 47/71/4 43/67/4 55/81/4
f 74/104/1 48/72/1 42/66/1 69/99/1
f 59/85/4 49/73/4 41/65/4 54/80/4
f 52/76/6 62/89/6 40/64/6 37/58/6
f 91/125/4 89/123/4 39/62/4 61/87/4
f 67/95/2 77/109/2 38/59/2 39/61/2
f 93/127/1 90/124/1 38/60/1 77/108/1
f 123/163/4 91/125/4 61/87/4 114/152/4
f 105/142/6 115/154/6 62/89/6 52/76/6
f 112/150/4 59/85/4 54/80/4 107/145/4
f 111/149/4 58/84/4 55/81/4 108/146/4
f 113/151/4 60/86/4 56/82/4 109/147/4
f 108/146/4 55/81/4 57/83/4 110/148/4
f 125/165/4 101/137/4 58/84/4 111/149/4
f 109/147/4 56/82/4 59/85/4 112/150/4
f 105/141/4 52/77/4 60/86/4 113/151/4
f 40/63/1 62/90/1 66/94/1 51/75/1
f 44/68/1 64/92/1 65/93/1 48/72/1
f 73/103/3 103/139/3 141/181/3 140/180/3
f 100/136/2 102/138/2 137/177/2 133/173/2
f 51/75/1 66/94/1 64/92/1 44/68/1
f 72/102/3 70/100/3 138/178/3 139/179/3
f 48/72/1 65/93/1 63/91/1 42/66/1
f 39/61/2 38/59/2 53/78/2 61/88/2
f 90/124/1 92/126/1 53/79/1 38/60/1
f 86/119/1 93/127/1 77/108/1 3/3/1
f 4/4/2 3/3/2 77/109/2 67/95/2
f 30/47/1 74/104/1 69/99/1 10/17/1
f 28/44/1 73/103/1 70/100/1 14/23/1
f 36/56/1 75/105/1 71/101/1 20/32/1
f 14/23/1 70/100/1 72/102/1 22/35/1
f 98/134/1 103/139/1 73/103/1 28/44/1
f 20/32/1 71/101/1 74/104/1 30/47/1
f 1/1/1 68/97/1 75/105/1 36/56/1
f 37/57/4 76/106/4 84/116/4 50/74/4
f 45/69/4 80/112/4 83/115/4 49/73/4
f 99/135/4 104/140/4 82/114/4 47/71/4
f 43/67/4 79/111/4 81/113/4 46/70/4
f 50/74/4 84/116/4 80/112/4 45/69/4
f 47/71/4 82/114/4 79/111/4 43/67/4
f 49/73/4 83/115/4 78/110/4 41/65/4
f 37/58/6 40/64/6 68/98/6 76/107/6
f 89/123/4 94/128/4 67/96/4 39/62/4
f 46/70/4 81/113/4 94/128/4 89/123/4
f 22/35/1 72/102/1 93/127/1 86/119/1
f 102/138/2 126/166/2 146/186/2 137/177/2
f 110/148/4 57/83/4 91/125/4 123/163/4
f 93/127/3 72/102/3 139/179/3 144/184/3
f 57/83/4 46/70/4 89/123/4 91/125/4
f 8/13/3 7/11/3 87/120/3 85/117/3
f 24/38/5 22/35/5 86/119/5 88/122/5
f 81/113/4 24/38/4 88/122/4 94/128/4
f 119/159/1 23/37/1 87/121/1 124/164/1
f 41/65/4 78/110/4 104/140/4 99/135/4
f 10/17/1 69/99/1 103/139/1 98/134/1
f 42/66/1 63/91/1 102/138/1 100/136/1
f 107/145/4 54/80/4 101/137/4 125/165/4
f 69/99/1 42/66/1 100/136/1 103/139/1
f 54/80/4 41/65/4 99/135/4 101/137/4
f 12/20/5 10/17/5 98/134/5 96/131/5
f 78/110/4 12/20/4 96/131/4 104/140/4
f 116/156/1 11/19/1 95/129/1 126/166/1
f 27/42/3 25/40/3 95/130/3 97/132/3
f 63/91/1 116/156/1 126/166/1 102/138/1
f 9/16/4 107/145/4 125/165/4 97/133/4
f 70/100/3 73/103/3 140/180/3 138/178/3
f 21/34/4 110/148/4 123/163/4 85/118/4
f 6/7/4 105/141/4 113/151/4 35/55/4
f 19/31/4 109/147/4 112/150/4 29/46/4
f 97/133/4 125/165/4 111/149/4 27/43/4
f 13/22/4 108/146/4 110/148/4 21/34/4
f 35/55/4 113/151/4 109/147/4 19/31/4
f 27/43/4 111/149/4 108/146/4 13/22/4
f 29/46/4 112/150/4 107/145/4 9/16/4
f 6/8/6 5/6/6 115/154/6 105/142/6
f 85/118/4 123/163/4 114/152/4 8/14/4
f 62/90/1 115/155/1 122/162/1 66/94/1
f 64/92/1 118/158/1 121/161/1 65/93/1
f 90/124/6 93/127/6 144/184/6 142/182/6
f 120/160/5 117/157/5 134/174/5 136/176/5
f 66/94/1 122/162/1 118/158/1 64/92/1
f 119/159/5 124/164/5 145/185/5 135/175/5
f 65/93/1 121/161/1 116/156/1 63/91/1
f 61/88/2 53/78/2 106/143/2 114/153/2
f 92/126/1 124/164/1 106/144/1 53/79/1
f 141/181/1 133/173/1 132/172/1 140/180/1
f 138/178/1 128/168/1 130/170/1 139/179/1
f 140/180/1 132/172/1 128/168/1 138/178/1
f 133/173/1 137/177/1 131/171/1 132/172/1
f 128/168/1 127/167/1 129/169/1 130/170/1
f 132/172/1 131/171/1 127/167/1 128/168/1
f 130/170/1 129/169/1 143/183/1 142/182/1
f 139/179/1 130/170/1 142/182/1 144/184/1
f 129/169/1 135/175/1 145/185/1 143/183/1
f 137/177/1 146/186/1 136/176/1 131/171/1
f 127/167/1 134/174/1 135/175/1 129/169/1
f 131/171/1 136/176/1 134/174/1 127/167/1
f 103/139/2 100/136/2 133/173/2 141/181/2
f 92/126/6 90/124/6 142/182/6 143/183/6
