# Blender 3.1.0
# www.blender.org
mtllib BlenderSimpleFootPrint1.mtl
o Plane
v -0.390329 0.000000 0.299659
v 0.544647 0.000000 0.299473
v -0.390329 0.000000 -0.304842
v 0.544647 0.000000 -0.285134
v -0.591612 0.000000 0.000000
v 0.544647 0.000000 0.000000
v 0.000000 0.000000 0.355313
v 0.000000 0.000000 -0.352562
v 0.000000 0.000000 0.000000
v -0.544647 0.000000 0.167305
v 0.544647 0.000000 0.167305
v 0.000000 0.000000 0.167305
v 0.544647 0.000000 -0.167305
v -0.544647 0.000000 -0.167305
v 0.000000 0.000000 -0.167305
v -0.272323 0.000000 -0.334611
v -0.272323 0.000000 0.000000
v -0.272323 0.000000 0.334611
v -0.272323 0.000000 0.167305
v -0.272323 0.000000 -0.167305
v 0.272323 0.000000 0.334611
v 0.272323 0.000000 -0.334611
v 0.272323 0.000000 0.000000
v 0.272323 0.000000 0.167305
v 0.272323 0.000000 -0.167305
vn -0.0000 1.0000 -0.0000
vt 0.000000 0.000000
vt 1.000000 0.000000
vt 0.000000 1.000000
vt 1.000000 1.000000
vt 0.000000 0.500000
vt 1.000000 0.500000
vt 0.500000 0.000000
vt 0.500000 1.000000
vt 0.500000 0.500000
vt 0.000000 0.250000
vt 1.000000 0.250000
vt 0.500000 0.250000
vt 1.000000 0.750000
vt 0.000000 0.750000
vt 0.500000 0.750000
vt 0.250000 1.000000
vt 0.250000 0.500000
vt 0.250000 0.000000
vt 0.250000 0.250000
vt 0.250000 0.750000
vt 0.750000 0.000000
vt 0.750000 1.000000
vt 0.750000 0.500000
vt 0.750000 0.250000
vt 0.750000 0.750000
s 0
f 25/25/1 13/13/1 4/4/1 22/22/1
f 24/24/1 11/11/1 6/6/1 23/23/1
f 19/19/1 12/12/1 9/9/1 17/17/1
f 20/20/1 15/15/1 8/8/1 16/16/1
f 18/18/1 7/7/1 12/12/1 19/19/1
f 21/21/1 2/2/1 11/11/1 24/24/1
f 17/17/1 9/9/1 15/15/1 20/20/1
f 23/23/1 6/6/1 13/13/1 25/25/1
f 5/5/1 17/17/1 20/20/1 14/14/1
f 1/1/1 18/18/1 19/19/1 10/10/1
f 14/14/1 20/20/1 16/16/1 3/3/1
f 10/10/1 19/19/1 17/17/1 5/5/1
f 9/9/1 23/23/1 25/25/1 15/15/1
f 7/7/1 21/21/1 24/24/1 12/12/1
f 12/12/1 24/24/1 23/23/1 9/9/1
f 15/15/1 25/25/1 22/22/1 8/8/1
o Plane.001
v 0.808323 0.000000 0.265111
v 1.301970 0.000000 0.229299
v 0.808323 0.000000 -0.265111
v 1.301970 0.000000 -0.232259
v 0.808323 0.000000 0.000000
v 1.401201 0.000000 0.000000
v 1.089019 0.000000 0.265111
v 1.089019 0.000000 -0.265111
v 1.089019 0.000000 0.000000
v 0.808323 0.000000 0.132555
v 1.369716 0.000000 0.132555
v 1.089019 0.000000 0.132555
v 1.369716 0.000000 -0.132555
v 0.808323 0.000000 -0.132555
v 1.089019 0.000000 -0.132555
v 0.948671 0.000000 -0.265111
v 0.948671 0.000000 0.000000
v 0.948671 0.000000 0.265111
v 0.948671 0.000000 0.132555
v 0.948671 0.000000 -0.132555
v 1.229368 0.000000 0.265111
v 1.229368 0.000000 -0.265111
v 1.229368 0.000000 0.000000
v 1.229368 0.000000 0.132555
v 1.229368 0.000000 -0.132555
vn -0.0000 1.0000 -0.0000
vt 0.000000 0.000000
vt 1.000000 0.000000
vt 0.000000 1.000000
vt 1.000000 1.000000
vt 0.000000 0.500000
vt 1.000000 0.500000
vt 0.500000 0.000000
vt 0.500000 1.000000
vt 0.500000 0.500000
vt 0.000000 0.250000
vt 1.000000 0.250000
vt 0.500000 0.250000
vt 1.000000 0.750000
vt 0.000000 0.750000
vt 0.500000 0.750000
vt 0.250000 1.000000
vt 0.250000 0.500000
vt 0.250000 0.000000
vt 0.250000 0.250000
vt 0.250000 0.750000
vt 0.750000 0.000000
vt 0.750000 1.000000
vt 0.750000 0.500000
vt 0.750000 0.250000
vt 0.750000 0.750000
s 0
f 50/50/2 38/38/2 29/29/2 47/47/2
f 49/49/2 36/36/2 31/31/2 48/48/2
f 44/44/2 37/37/2 34/34/2 42/42/2
f 45/45/2 40/40/2 33/33/2 41/41/2
f 43/43/2 32/32/2 37/37/2 44/44/2
f 46/46/2 27/27/2 36/36/2 49/49/2
f 42/42/2 34/34/2 40/40/2 45/45/2
f 48/48/2 31/31/2 38/38/2 50/50/2
f 30/30/2 42/42/2 45/45/2 39/39/2
f 26/26/2 43/43/2 44/44/2 35/35/2
f 39/39/2 45/45/2 41/41/2 28/28/2
f 35/35/2 44/44/2 42/42/2 30/30/2
f 34/34/2 48/48/2 50/50/2 40/40/2
f 32/32/2 46/46/2 49/49/2 37/37/2
f 37/37/2 49/49/2 48/48/2 34/34/2
f 40/40/2 50/50/2 47/47/2 33/33/2
