# Blender 3.1.0
# www.blender.org
mtllib BlenderCrimeSceneMarker1.mtl
o Cube
v 1.000000 -0.927943 -0.927069
v 1.000000 -0.927943 0.927069
v -1.000000 -0.927943 -0.927069
v -1.000000 -0.927943 0.927069
v 1.000000 1.000000 0.000000
v -1.000000 1.000000 0.000000
v 1.000000 -0.925371 -1.000000
v 1.000000 1.000000 -0.069818
v 1.000000 1.000000 0.069818
v 1.000000 -0.925371 1.000000
v -1.000000 1.000000 -0.069818
v -1.000000 -0.925371 -1.000000
v -1.000000 -0.925371 1.000000
v -1.000000 1.000000 0.069818
v -1.000000 0.881818 -0.058401
v -1.000000 0.881818 0.058401
v -1.000000 0.925260 0.000000
v 1.000000 0.881818 0.058401
v 1.000000 0.881818 -0.058401
v 1.000000 0.925260 0.000000
vn -1.0000 -0.0000 -0.0000
vn -0.0000 1.0000 -0.0000
vn -0.0000 -0.4327 0.9015
vn -0.0000 -0.9994 0.0352
vn -0.0000 -0.9994 -0.0352
vn 1.0000 -0.0000 -0.0000
vn -0.0000 0.4350 0.9004
vn -0.0000 0.4350 -0.9004
vn -0.0000 -1.0000 -0.0000
vn -0.0000 -0.4327 -0.9015
vt 0.375000 0.500000
vt 0.375000 0.750000
vt 0.125000 0.500000
vt 0.375000 0.250000
vt 0.375000 0.000000
vt 0.375000 1.000000
vt 0.125000 0.750000
vt 0.625000 0.625000
vt 0.625000 0.125000
vt 0.875000 0.625000
vt 0.508727 0.500000
vt 0.625000 0.616273
vt 0.625000 0.500000
vt 0.625000 0.750000
vt 0.625000 0.633727
vt 0.508727 0.750000
vt 0.625000 0.133727
vt 0.875000 0.616273
vt 0.625000 0.250000
vt 0.508727 0.250000
vt 0.508727 0.000000
vt 0.508727 1.000000
vt 0.625000 0.116273
vt 0.875000 0.633727
vt 0.625000 1.000000
vt 0.375000 0.138638
vt 0.362385 0.138638
vt 0.125000 0.611362
vt 0.375000 0.111362
vt 0.125000 0.638638
vt 0.388638 0.125000
vt 0.375000 0.638638
vt 0.375000 0.611362
vt 0.388638 0.625000
s 0
usemtl Material
f 4/5/1 13/21/1 14/23/1 6/9/1 17/31/1 16/29/1
f 5/8/2 6/10/2 14/24/2 9/15/2
f 3/3/3 1/1/3 19/33/3 15/28/3
f 15/26/1 17/31/1 6/9/1 11/17/1 12/20/1 3/4/1
f 2/2/4 10/16/4 13/22/4 4/6/4
f 8/12/2 11/18/2 6/10/2 5/8/2
f 3/4/5 12/20/5 7/11/5 1/1/5
f 1/1/6 7/11/6 8/12/6 5/8/6 20/34/6 19/33/6
f 9/14/7 14/25/7 13/22/7 10/16/7
f 11/19/8 8/13/8 7/11/8 12/20/8
f 18/32/6 20/34/6 5/8/6 9/15/6 10/16/6 2/2/6
f 15/27/1 16/29/1 17/31/1
f 18/32/6 19/33/6 20/34/6
f 18/32/9 16/30/9 15/28/9 19/33/9
f 16/30/10 18/32/10 2/2/10 4/7/10
